<?xml version="1.0" encoding="utf-8"?>
<!-- Generator: Adobe Illustrator 19.2.0, SVG Export Plug-In . SVG Version: 6.00 Build 0)  -->
<svg version="1.1" id="Слой_1" xmlns="http://www.w3.org/2000/svg" xmlns:xlink="http://www.w3.org/1999/xlink" x="0px" y="0px"
	 viewBox="0 0 120 20" style="enable-background:new 0 0 120 20;" xml:space="preserve">
<style type="text/css">
	.st0{fill:#B20520;}
</style>
<g>
	<g>
		<path d="M83.2855453,9.1280918l0.2811203-0.0526209l0.4743118-2.6004591h-0.2635345l0.0351715-0.2107706h1.1420822
			c0.5929871,0,0.9180069,0.3250213,0.8213501,0.8520913c-0.0966644,0.5315027-0.5402298,0.8522344-1.1289291,0.8522344h-0.5007553
			l-0.2107697,1.1595249h0.3601913l-0.0351715,0.2109137h-1.0102463L83.2855453,9.1280918z M84.4143295,6.4970326
			l-0.228363,1.2387428h0.5007629c0.3646317,0,0.6368866-0.2372246,0.711525-0.6194429
			c0.0703583-0.3820758-0.1185379-0.6192999-0.4831696-0.6192999H84.4143295z"/>
		<path d="M86.3339996,8.2057915c-0.1318359,0.5665359,0.0570526,0.9048557,0.5622482,0.9048557
			c0.1844559,0,0.3952255-0.0440416,0.5402222-0.1274061l0.0703506,0.1888924
			c-0.1977539,0.1229734-0.4657211,0.1888933-0.7072372,0.1888933c-0.6237335,0-0.9620514-0.4042397-0.8302155-1.133358
			c0.1229782-0.6720638,0.5402298-1.1069036,1.1465149-1.1069036c0.4831696,0,0.733551,0.27669,0.645607,0.7687268
			c-0.0175858,0.0877976-0.0483322,0.2020483-0.0922241,0.3162994H86.3339996z M86.3734665,7.9993105h1.0498505
			c0.0218735-0.0571971,0.0307388-0.1053858,0.0394669-0.153717c0.0527649-0.3075767-0.1098175-0.4744487-0.3865128-0.4744487
			C86.7380981,7.3711448,86.4877167,7.6170917,86.3734665,7.9993105z"/>
		<path d="M88.4073868,7.335969c0.228363-0.1492844,0.4918976-0.2152038,0.7246857-0.2152038
			c0.5007629,0,0.7203979,0.2898455,0.6368866,0.7642941l-0.2020416,1.1113367
			c-0.0175934,0.1009521,0.0044327,0.1361284,0.0746384,0.1361284c0.0396118,0,0.0966644-0.013155,0.153862-0.0394659v0.1713047
			c-0.140564,0.0614872-0.2679672,0.0922308-0.3690643,0.0922308c-0.1800308,0-0.2503815-0.0922308-0.2459488-0.2285023
			c-0.1933212,0.1494274-0.4348373,0.232935-0.6544724,0.232935c-0.3689194,0-0.5578156-0.2285023-0.5007629-0.5579567
			c0.0570526-0.3118658,0.3118668-0.5270691,0.6852188-0.5754013l0.645752-0.0922298l0.0483322-0.2548122
			c0.0526276-0.3161564-0.079071-0.5094819-0.4040909-0.5094819c-0.1801758,0-0.3646317,0.057054-0.5227814,0.153717
			L88.4073868,7.335969z M89.2200165,8.8953009l0.1009521-0.5578136l-0.5622482,0.0879402
			c-0.2283554,0.0350332-0.3689194,0.166872-0.3996658,0.3557653c-0.0351715,0.2107706,0.0790787,0.3294544,0.3074341,0.3294544
			C88.8422318,9.1106472,89.0705872,9.0447273,89.2200165,8.8953009z"/>
		<path d="M92.3431091,6.2773962c-0.4787369,0.4437056-1.172821-0.0922298-1.5198669,1.1728234
			c0.2153473-0.1888928,0.5183487-0.3294544,0.8126297-0.3294544c0.5140533,0,0.7644348,0.430407,0.6370316,1.1376472
			c-0.1186829,0.6676311-0.5007629,1.1026144-1.1685333,1.1026144c-0.5709686,0-0.9180145-0.3162994-0.6983795-1.5242987
			c0.3250275-1.7876906,1.1420822-1.4363585,1.6691513-1.6954603l0.0747833-0.1977587l0.2503815-0.0174451L92.3431091,6.2773962z
			 M90.8100891,7.6917338c-0.0131531,0.0527639-0.0263062,0.109818-0.0394669,0.1977582
			c-0.1757355,0.9487543,0.0307465,1.2211552,0.3953781,1.2211552c0.425972,0,0.6500397-0.3383198,0.7422714-0.8433695
			c0.1053848-0.5842667-0.0614853-0.8961329-0.4261169-0.8961329C91.2274857,7.3711448,90.9550858,7.5292945,90.8100891,7.6917338z"
			/>
		<path d="M94.7019119,9.2643633c-0.1361313,0.0614872-0.2679672,0.0922308-0.3689194,0.0922308
			c-0.1844635,0-0.2592468-0.0966635-0.2459488-0.2459469c-0.2372208,0.1624393-0.5140533,0.2503796-0.7600021,0.2503796
			c-0.4304047,0-0.6017151-0.2768335-0.5226364-0.7072401l0.2283554-1.2606211l-0.2283554-0.0307431l0.0175858-0.1977587
			c0.1580048-0.0263104,0.3644867-0.0438986,0.4391327-0.0438986c0.1274033,0,0.1757355,0.0527644,0.1538544,0.1757379
			l-0.2416534,1.339695c-0.0570526,0.2898455,0.0396118,0.4744492,0.3338852,0.4744492
			c0.1844635,0,0.434845-0.0703526,0.6193008-0.2196369l0.3162994-1.7395015l0.3644867-0.0220208l-0.3337402,1.8669081
			c-0.0220261,0.1009521,0.0087204,0.1361284,0.079071,0.1361284c0.0438995,0,0.0922318-0.013155,0.1492844-0.0394659V9.2643633z"/>
		<path d="M97.201416,9.2643633c-0.1405563,0.0614872-0.2635345,0.0922308-0.364624,0.0922308
			c-0.2064819,0-0.2722626-0.1229734-0.2372284-0.3031445l0.307579-1.6778722h-0.6061478l-0.3559036,1.0848832
			c-0.1888962,0.5754013-0.3426132,0.8961334-0.6807861,0.8961334c-0.1142578,0-0.2416611-0.0307436-0.3470459-0.1098185
			l0.0703506-0.1757374c0.0657806,0.0438986,0.1272659,0.0527639,0.1755981,0.0527639
			c0.1846008,0,0.2987061-0.193326,0.4700165-0.7203951l0.3338852-1.0235395L95.7167282,7.349124l0.0175934-0.1844602
			c0.1537094-0.013155,0.3118591-0.0218778,0.4655762-0.0218778h1.1113434l-0.3383255,1.85361
			c-0.0174408,0.1009521,0.0088654,0.1361284,0.0790787,0.1361284c0.0396042,0,0.0923691-0.013155,0.1538544-0.0394659
			L97.201416,9.2643633z"/>
		<path d="M99.7578354,9.2643633c-0.1361237,0.0614872-0.2679672,0.0922308-0.3689194,0.0922308
			c-0.1844559,0-0.2592468-0.0966635-0.2459488-0.2459469c-0.2372208,0.1624393-0.5140533,0.2503796-0.7600021,0.2503796
			c-0.4304047,0-0.6017151-0.2768335-0.5226364-0.7072401l0.2283554-1.2606211l-0.2283554-0.0307431l0.0175858-0.1977587
			c0.1580048-0.0263104,0.3644867-0.0438986,0.4391327-0.0438986c0.1274033,0,0.1757355,0.0527644,0.153862,0.1757379
			L98.229248,8.636198c-0.0570526,0.2898455,0.0396118,0.4744492,0.3338852,0.4744492
			c0.1844635,0,0.434845-0.0703526,0.6193008-0.2196369l0.3162994-1.7395015l0.3644867-0.0220208L99.52948,8.9963961
			c-0.0220261,0.1009521,0.0087204,0.1361284,0.079071,0.1361284c0.0438995,0,0.0922318-0.013155,0.1492844-0.0394659V9.2643633z"/>
		<path d="M100.2894821,9.3521614l0.360199-1.9589958l-0.2285004-0.0307431l0.0175858-0.1977587
			c0.153717-0.0263104,0.360199-0.0438986,0.4348373-0.0438986c0.1318436,0,0.1757431,0.0527644,0.1581497,0.1757379
			l-0.0131531,0.0746417c0.219635-0.1625824,0.4700165-0.2503796,0.7072372-0.2503796
			c0.2635345,0,0.4172516,0.1142511,0.4700165,0.3118663c0.2327957-0.1976151,0.5226364-0.3118663,0.7818832-0.3118663
			c0.4040985,0,0.5490952,0.2591023,0.4743042,0.6676311l-0.219635,1.2079997
			c-0.0174408,0.1009521,0.013298,0.1361284,0.0790787,0.1361284c0.0440369,0,0.0966568-0.013155,0.1494217-0.0394659
			l0.0042953,0.1713047c-0.140419,0.0614872-0.2678299,0.0922308-0.3689194,0.0922308
			c-0.2064819,0-0.2722626-0.1229734-0.2372284-0.3031445l0.2285004-1.2561874
			c0.0483322-0.263535-0.0220184-0.4261174-0.285553-0.4261174c-0.1888962,0-0.4172516,0.0835075-0.5885544,0.2416573
			c0,0.0526209-0.0088654,0.1141076-0.0175934,0.1755943l-0.2811203,1.5418868l-0.3646317,0.0218782l0.2811203-1.5548992
			c0.0483322-0.263535-0.0218735-0.4261174-0.285553-0.4261174c-0.1844559,0-0.3952332,0.0746422-0.5665359,0.2196364
			l-0.3162994,1.739502L100.2894821,9.3521614z"/>
		<path d="M104.2518005,7.335969c0.2285004-0.1492844,0.4918976-0.2152038,0.7246857-0.2152038
			c0.5007553,0,0.7203979,0.2898455,0.6368866,0.7642941l-0.2019043,1.1113367
			c-0.0177307,0.1009521,0.0042877,0.1361284,0.074646,0.1361284c0.0394592,0,0.0966568-0.013155,0.1538544-0.0394659v0.1713047
			c-0.1407013,0.0614872-0.2679672,0.0922308-0.3692017,0.0922308c-0.1798859,0-0.2502365-0.0922308-0.2459488-0.2285023
			c-0.1933289,0.1494274-0.4347,0.232935-0.654335,0.232935c-0.3689194,0-0.5579529-0.2285023-0.5007553-0.5579567
			c0.0569077-0.3118658,0.3117218-0.5270691,0.6852188-0.5754013l0.645752-0.0922298l0.0483322-0.2548122
			c0.0526199-0.3161564-0.079216-0.5094819-0.4040985-0.5094819c-0.1801682,0-0.3646317,0.057054-0.5227814,0.153717
			L104.2518005,7.335969z M105.0645676,8.8953009l0.1009521-0.5578136l-0.5622406,0.0879402
			c-0.228508,0.0350332-0.368927,0.166872-0.3998108,0.3557653c-0.0351715,0.2107706,0.079216,0.3294544,0.3074341,0.3294544
			C104.6867828,9.1106472,104.9150009,9.0447273,105.0645676,8.8953009z"/>
		<path d="M108.1657867,9.1062145c0.1272659,0,0.1624374,0.0614862,0.1361313,0.2240686
			c-0.0220261,0.1098185-0.0966644,0.4435625-0.1624374,0.6324549l-0.2242126,0.0131559l0.079216-0.6368885h-0.1670151
			c-0.1801682,0-0.2591019-0.0835075-0.2548141-0.2240686c-0.2370834,0.1581497-0.5182037,0.2460899-0.7598572,0.2460899
			c-0.4304123,0-0.6017151-0.2768335-0.5227814-0.7072401l0.2285004-1.2606211l-0.2285004-0.0307431l0.0177307-0.1977587
			c0.1578598-0.0263104,0.3643417-0.0438986,0.4389877-0.0438986c0.1275482,0,0.1758804,0.0527644,0.1538544,0.1757379
			l-0.2416534,1.339695c-0.0569153,0.2898455,0.0397491,0.4744492,0.3340302,0.4744492
			c0.1844559,0,0.4346924-0.0747852,0.6148682-0.2196369l0.3162994-1.7395015l0.3689194-0.0220208l-0.3337479,1.8493204
			c-0.0177307,0.1010952,0.0174484,0.1274061,0.0877991,0.1274061H108.1657867z"/>
		<path d="M110.849472,9.2643633c-0.1361313,0.0614872-0.2679749,0.0922308-0.368927,0.0922308
			c-0.1844559,0-0.2591019-0.0966635-0.2459412-0.2459469c-0.2373734,0.1624393-0.513916,0.2503796-0.7598648,0.2503796
			c-0.4306946,0-0.6019974-0.2768335-0.5227814-0.7072401l0.2285004-1.2606211l-0.2285004-0.0307431l0.0174484-0.1977587
			c0.1581497-0.0263104,0.3646317-0.0438986,0.43927-0.0438986c0.1275482,0,0.1758804,0.0527644,0.153862,0.1757379
			l-0.2416611,1.339695c-0.0571976,0.2898455,0.0394669,0.4744492,0.3337479,0.4744492
			c0.1844559,0,0.4349823-0.0703526,0.6194458-0.2196369l0.3162918-1.7395015l0.3646317-0.0220208l-0.3340302,1.8669081
			c-0.0217361,0.1009521,0.0088654,0.1361284,0.0792236,0.1361284c0.0437546,0,0.0920868-0.013155,0.1492844-0.0394659V9.2643633z"
			/>
		<path d="M113.1158981,9.2643633c-0.1315536,0.0614872-0.2679672,0.0922308-0.3689194,0.0922308
			c-0.2064819,0-0.2679672-0.1229734-0.2327957-0.3031445l0.1186829-0.6589088h-0.4304047l-0.4790268,0.786315
			c-0.0700607,0.1405621-0.1624374,0.1757383-0.2676773,0.1757383c-0.1012421,0-0.233078-0.0175886-0.3426132-0.0483313
			l0.0480499-0.193326l0.2636795-0.0350332l0.4833069-0.7161055c-0.2945633-0.0790749-0.4261169-0.2854128-0.364624-0.5929894
			c0.065773-0.3865085,0.3820724-0.6280227,0.8828354-0.6280227h0.7950363l-0.3337479,1.85361
			c-0.0220184,0.1009521,0.0042877,0.1361284,0.0789337,0.1361284c0.0394669,0,0.0966644-0.013155,0.1492844-0.0394659V9.2643633z
			 M112.6723328,8.1706152l0.1449966-0.7994704h-0.373497c-0.294281,0-0.49189,0.1492839-0.5402222,0.3996639
			c-0.0483322,0.2503791,0.0966568,0.3998065,0.3998032,0.3998065H112.6723328z"/>
	</g>
	<g>
		<path d="M85.2632904,13.0784206c-0.1362686,0.0614862-0.2636795,0.0922298-0.3646317,0.0922298
			c-0.2064819,0-0.2723999-0.1229734-0.2372208-0.3031435l0.1361313-0.7422733H83.787323l-0.1888885,1.0191059l-0.3689194,0.0218782
			l0.3601913-1.9589958l-0.2285004-0.0307426l0.0175858-0.1977587c0.153717-0.0263109,0.3559113-0.0438986,0.4392776-0.0438986
			c0.1274033,0,0.1713028,0.0570536,0.153717,0.1757374l-0.1448517,0.7861719h1.005806l0.1713028-0.9311657l0.3646317-0.0220213
			l-0.3381729,1.8669081c-0.0175934,0.1009531,0.0131531,0.1361294,0.0833588,0.1361294
			c0.0396118,0,0.0922318-0.0131559,0.153717-0.0394659L85.2632904,13.0784206z"/>
		<path d="M86.9411621,10.9348221c0.5974274,0,0.9048538,0.4304066,0.7775955,1.120059
			c-0.1274109,0.6896524-0.5886993,1.1202021-1.1772537,1.1202021c-0.5929947,0-0.8961334-0.4305496-0.7687302-1.1202021
			S86.3526077,10.9348221,86.9411621,10.9348221z M86.5811081,12.9247036c0.3776474,0,0.6719208-0.3294544,0.7685852-0.8698225
			c0.1010971-0.540225-0.0702057-0.8696795-0.4524307-0.8696795c-0.3689194,0-0.6631927,0.3294544-0.7598572,0.8696795
			C86.0363083,12.5952492,86.2076111,12.9247036,86.5811081,12.9247036z"/>
		<path d="M89.326416,10.9568424c0.4437103,0,0.6633453,0.2152042,0.5974274,0.5665359
			c-0.0396118,0.2240696-0.1800308,0.3909416-0.3909454,0.4788818c0.2416611,0.0833645,0.360199,0.2766895,0.3118668,0.5446577
			c-0.065918,0.373353-0.4085236,0.6061449-0.8961334,0.6061449h-0.8300705l0.360054-1.9591389l-0.2327881-0.0307436
			l0.0175858-0.1844597c0.1494293-0.013155,0.294281-0.0218782,0.4437103-0.0218782H89.326416z M88.9399109,12.9247036
			c0.2987137,0,0.5051956-0.1494274,0.5490875-0.399807c0.0438995-0.2503796-0.1010895-0.4040956-0.3953705-0.4040956h-0.4172516
			l-0.153717,0.8039026H88.9399109z M89.1024933,11.9011641c0.2766876,0,0.4435654-0.1361284,0.4831696-0.3601971
			c0.0394669-0.2239265-0.079071-0.3557653-0.3514709-0.3557653h-0.3909454l-0.1361237,0.7159624H89.1024933z"/>
		<path d="M91.4920425,10.9348221c0.5974197,0,0.9048538,0.4304066,0.7775879,1.120059
			c-0.1274033,0.6896524-0.5886993,1.1202021-1.1772537,1.1202021c-0.5929871,0-0.8961334-0.4305496-0.7687302-1.1202021
			C90.4510574,11.3652287,90.9034805,10.9348221,91.4920425,10.9348221z M91.1319809,12.9247036
			c0.3776474,0,0.6719208-0.3294544,0.7685852-0.8698225c0.1010971-0.540225-0.0702057-0.8696795-0.4524231-0.8696795
			c-0.3689194,0-0.6632004,0.3294544-0.7598648,0.8696795C90.5871811,12.5952492,90.7584915,12.9247036,91.1319809,12.9247036z"/>
		<path d="M92.8538971,11.1500254c0.219635-0.1492844,0.4787369-0.2152033,0.7115326-0.2152033
			c0.4305496,0,0.6194382,0.2283583,0.5622406,0.5359354c-0.1141052,0.6237326-1.1024704,0.6676311-1.1859741,1.120059
			c-0.0307465,0.1713047,0.079071,0.3338871,0.3865051,0.3338871c0.1801758,0,0.3690643-0.0571966,0.5272141-0.1538601
			l0.0657806,0.1888933c-0.2239304,0.1494274-0.4874649,0.2153463-0.7378464,0.2153463
			c-0.4744492,0-0.6677704-0.2372246-0.6105728-0.5490904c0.1141052-0.6237326,1.1200562-0.6676311,1.1991348-1.1157694
			c0.0263062-0.1581497-0.0703583-0.3250217-0.3557663-0.3250217c-0.1625824,0-0.3470459,0.0570536-0.4920349,0.153717
			L92.8538971,11.1500254z"/>
		<path d="M95.6255188,10.9348221c0.5974197,0,0.9049988,0.4304066,0.7775955,1.120059
			c-0.1274109,0.6896524-0.5886993,1.1202021-1.1772614,1.1202021c-0.5929871,0-0.8961334-0.4305496-0.7687225-1.1202021
			C94.5845337,11.3652287,95.0369644,10.9348221,95.6255188,10.9348221z M95.2653198,12.9247036
			c0.3777847,0,0.6720657-0.3294544,0.7687302-0.8698225c0.1010971-0.540225-0.0702133-0.8696795-0.4524307-0.8696795
			c-0.3689194,0-0.6632004,0.3294544-0.7598572,0.8696795C94.720665,12.5952492,94.8919678,12.9247036,95.2653198,12.9247036z"/>
		<path d="M97.8570557,13.1662178l0.360199-1.9589958l-0.2285004-0.0307426l0.0175858-0.1977587
			c0.153717-0.0263109,0.360199-0.0438986,0.434845-0.0438986c0.1318359,0,0.1757355,0.0527639,0.1581497,0.1757374
			l-0.0131607,0.0746422c0.2327957-0.1625824,0.513916-0.2503796,0.7598648-0.2503796
			c0.4349823,0,0.6150055,0.2766905,0.5359344,0.7115297l-0.2152023,1.1641006
			c-0.0131607,0.1009531,0.0131531,0.1361294,0.0835037,0.1361294c0.0394669,0,0.0965195-0.0131559,0.1492844-0.0394659v0.1713047
			c-0.1361237,0.0614862-0.2679672,0.0922298-0.3689194,0.0922298c-0.2064819,0-0.2679672-0.1229734-0.2327881-0.2987108
			l0.219635-1.2122898c0.0481873-0.2899885-0.0527649-0.4744482-0.3514786-0.4744482
			c-0.1844559,0-0.4479904,0.0790749-0.6237335,0.2283583l-0.3118668,1.7307796L97.8570557,13.1662178z"/>
		<path d="M101.5775757,10.9348221c0.5974197,0,0.9048538,0.4304066,0.7775955,1.120059
			c-0.1274109,0.6896524-0.5886993,1.1202021-1.1772614,1.1202021c-0.5929871,0-0.8961334-0.4305496-0.7687225-1.1202021
			C100.5365906,11.3652287,100.9890213,10.9348221,101.5775757,10.9348221z M101.2175217,12.9247036
			c0.3776398,0,0.6719208-0.3294544,0.7685852-0.8698225c0.1010971-0.540225-0.0702133-0.8696795-0.4524307-0.8696795
			c-0.3689194,0-0.6632004,0.3294544-0.7598572,0.8696795C100.6727219,12.5952492,100.8440247,12.9247036,101.2175217,12.9247036z"
			/>
		<path d="M103.624794,12.0856247l-0.3734894,0.3383198l-0.1318436,0.7203951l-0.3689194,0.0218782l0.360199-1.9589958
			l-0.2285004-0.0307426l0.0175858-0.1977587c0.153717-0.0263109,0.3559113-0.0438986,0.43927-0.0438986
			c0.1275558,0,0.1713104,0.0570536,0.153862,0.1757374l-0.1757355,0.9487543l1.0980377-1.1024714h0.4129639l-0.9223022,0.8917007
			l0.4435577,1.0454168l0.2459488,0.0350332l-0.0174408,0.193326c-0.1449966,0.0307436-0.2988586,0.0483313-0.3823624,0.0483313
			c-0.1009521,0-0.1492844-0.0570536-0.1976166-0.1757374L103.624794,12.0856247z"/>
		<path d="M106.1897964,10.9348221c0.5977097,0,0.9051361,0.4304066,0.7775879,1.120059
			c-0.1272583,0.6896524-0.5885544,1.1202021-1.1771088,1.1202021c-0.593132,0-0.8962784-0.4305496-0.7687302-1.1202021
			C105.1488113,11.3652287,105.6012344,10.9348221,106.1897964,10.9348221z M105.8297424,12.9247036
			c0.3777847,0,0.6720581-0.3294544,0.7687225-0.8698225c0.1009521-0.540225-0.0703506-0.8696795-0.4524231-0.8696795
			c-0.368927,0-0.6632004,0.3294544-0.7598648,0.8696795C105.2849426,12.5952492,105.4562454,12.9247036,105.8297424,12.9247036z"/>
		<path d="M109.3307648,13.0784206c-0.140419,0.0614862-0.2633896,0.0922298-0.3643417,0.0922298
			c-0.2064819,0-0.2725449-0.1229734-0.2373734-0.3031435l0.3074341-1.6778727h-0.6059952l-0.3557663,1.0848827
			c-0.1890411,0.5754013-0.3426132,0.8961334-0.6809311,0.8961334c-0.1141052,0-0.2416611-0.0307436-0.3469009-0.1098185
			l0.0700684-0.1757374c0.0660629,0.0438986,0.1275482,0.0527639,0.1758804,0.0527639
			c0.1844559,0,0.2985687-0.193325,0.4698715-0.7203951l0.3337479-1.0235395l-0.2502365-0.0307436l0.0174408-0.1844597
			c0.153862-0.013155,0.3120117-0.0218782,0.4655838-0.0218782h1.1113358l-0.3380356,1.85361
			c-0.0177307,0.1009531,0.0085831,0.1361294,0.0789337,0.1361294c0.0394669,0,0.0923767-0.0131559,0.153862-0.0394659
			L109.3307648,13.0784206z"/>
		<path d="M110.2095947,12.0198479c-0.1318359,0.5665359,0.0569153,0.9048557,0.5622482,0.9048557
			c0.1844559,0,0.3952332-0.0440416,0.5402222-0.1274061l0.0703506,0.1888933
			c-0.1976089,0.1229734-0.4655762,0.1888924-0.7072372,0.1888924c-0.6237335,0-0.9620514-0.4042397-0.8302155-1.133357
			c0.1229782-0.6720648,0.5402298-1.106904,1.1465149-1.106904c0.4830246,0,0.733551,0.2766905,0.645752,0.7687263
			c-0.0177307,0.0877981-0.0483322,0.2020483-0.0923691,0.3162994H110.2095947z M110.2490616,11.8133669h1.0498505
			c0.0220184-0.0571966,0.0306015-0.1053848,0.0394669-0.153717c0.0526199-0.3075762-0.1098175-0.4744482-0.3863678-0.4744482
			C110.6136932,11.1852016,110.3631668,11.4311485,110.2490616,11.8133669z"/>
		<path d="M114.0618134,13.0784206c-0.1361313,0.0614862-0.2636795,0.0922298-0.3646317,0.0922298
			c-0.2064819,0-0.2722626-0.1229734-0.2370834-0.3031435l0.1361313-0.7422733h-1.0103836l-0.1887512,1.0191059
			l-0.3692093,0.0218782l0.3603439-1.9589958l-0.2285004-0.0307426l0.0177307-0.1977587
			c0.1535721-0.0263109,0.3557587-0.0438986,0.43927-0.0438986c0.1272659,0,0.1713028,0.0570536,0.1535721,0.1757374
			l-0.1449966,0.7861719h1.0060959l0.1713104-0.9311657l0.3643417-0.0220213l-0.3380356,1.8669081
			c-0.0177307,0.1009531,0.0131531,0.1361294,0.0835114,0.1361294c0.0394592,0,0.0920868-0.0131559,0.1535721-0.0394659
			L114.0618134,13.0784206z"/>
		<path d="M116.6182251,13.0784206c-0.1361237,0.0614862-0.2679672,0.0922298-0.3689194,0.0922298
			c-0.1844559,0-0.2591019-0.0966625-0.2459488-0.2459469c-0.2373657,0.1624393-0.5139084,0.2503796-0.7598572,0.2503796
			c-0.4306946,0-0.6019974-0.2768335-0.5227814-0.7072401l0.2285004-1.2606211l-0.2285004-0.0307426l0.0174484-0.1977587
			c0.1581497-0.0263109,0.364624-0.0438986,0.43927-0.0438986c0.1275482,0,0.1758804,0.0527639,0.153862,0.1757374
			l-0.2416611,1.3396959c-0.0571976,0.2898455,0.0394669,0.4744482,0.3337479,0.4744482
			c0.1844559,0,0.4349823-0.0703526,0.6194382-0.219636l0.3162994-1.739502l0.3646317-0.0220213l-0.3340302,1.8669081
			c-0.0217361,0.1009531,0.0088654,0.1361294,0.079216,0.1361294c0.0437546,0,0.0920868-0.0131559,0.1492844-0.0394659V13.0784206z"
			/>
		<path d="M118.8846588,13.0784206c-0.1315536,0.0614862-0.2679672,0.0922298-0.3689194,0.0922298
			c-0.2064819,0-0.2679672-0.1229734-0.2327957-0.3031435l0.1186829-0.6589088h-0.4304047l-0.4790268,0.786315
			c-0.0700684,0.1405611-0.1624374,0.1757374-0.2676773,0.1757374c-0.1012421,0-0.233078-0.0175877-0.3426132-0.0483313
			l0.0480499-0.193326l0.2636719-0.0350332l0.4833145-0.7161055c-0.2945633-0.0790749-0.4261169-0.2854128-0.3646317-0.592989
			c0.0657806-0.3865089,0.3820801-0.6280231,0.8828354-0.6280231h0.7950363l-0.3337402,1.85361
			c-0.0220184,0.1009531,0.0042877,0.1361294,0.0789337,0.1361294c0.0394669,0,0.0966644-0.0131559,0.1492844-0.0394659V13.0784206z
			 M118.4410934,11.9846716l0.1449966-0.7994699h-0.373497c-0.294281,0-0.4918976,0.1492844-0.5402222,0.3996639
			c-0.0483322,0.2503796,0.0966568,0.399806,0.3998032,0.399806H118.4410934z"/>
	</g>
	<rect x="77.1005554" y="1.2195635" class="st0" width="2.0452511" height="16.9852047"/>
	<path d="M6.7257514,4.1240244c3.184154,0,5.7567296,2.340642,5.7567296,5.5669785
		c0,3.2473564-2.5725756,5.6093044-5.7355666,5.6093044c-3.184154,0-5.7567296-2.361948-5.7567296-5.6093044
		C0.9901848,6.4646664,3.5627604,4.1240244,6.7257514,4.1240244z M6.7469144,13.5289183
		c2.00318,0,3.6690412-1.6026592,3.6690412-3.8379154c0-2.2140937-1.6658611-3.795589-3.6690412-3.795589
		c-2.024343,0-3.6691842,1.5814953-3.6691842,3.795589C3.0777302,11.926259,4.7225714,13.5289183,6.7469144,13.5289183z"/>
	<path d="M20.0068111,4.1240244c1.4127636,0,2.9942589,0.4850302,4.0065022,1.5604753l-0.9700603,1.4340706
		c-0.7169628-0.7171068-1.8345909-1.2231565-2.9520779-1.2231565c-2.1508904,0-3.7113667,1.6238213-3.7113667,3.795589
		c0,2.1720543,1.5604763,3.8379154,3.7745705,3.8379154c1.18083,0,2.4671898-0.569396,3.2895393-1.4339275l0.8223476,1.4971294
		c-0.9699154,1.0332632-2.5935955,1.7081871-4.2594547,1.7081871c-3.3739052,0-5.7145472-2.3828249-5.7145472-5.5881414
		C14.292264,6.5490317,16.6539249,4.1240244,20.0068111,4.1240244z"/>
	<path d="M29.6280518,6.1273475h-3.7112236V4.377121h9.4679527v1.7502265h-3.7323875v8.9198627h-2.0243416V6.1273475z"/>
	<path d="M42.6842537,4.1240244c3.0154228,0,4.617939,2.2562761,4.617939,4.9975824
		c0,0.2742596-0.0421829,0.569396-0.0842209,0.8648186h-7.7600555c0.1053886,2.2984591,1.7502289,3.5424929,3.6691856,3.5424929
		c1.138649,0,2.2984581-0.4850302,3.1418266-1.2440338l0.8646774,1.4971294
		c-1.0332642,0.9488974-2.6569405,1.5182934-4.1330528,1.5182934c-3.3528824,0-5.6723633-2.4251509-5.6723633-5.5881414
		C37.3281898,6.3170981,39.6476707,4.1240244,42.6842537,4.1240244z M45.2356682,8.5101719
		c-0.0632019-1.8345919-1.2018509-2.8046522-2.5935974-2.8046522c-1.5814934,0-2.8256721,1.0332627-3.1209488,2.8046522H45.2356682z
		"/>
	<path d="M55.433239,4.1240244c3.1841545,0,5.7567291,2.340642,5.7567291,5.5669785
		c0,3.2473564-2.5725746,5.6093044-5.7355652,5.6093044c-3.1841545,0-5.7567291-2.361948-5.7567291-5.6093044
		C49.6976738,6.4646664,52.2702484,4.1240244,55.433239,4.1240244z M55.4544029,13.5289183
		c2.0031776,0,3.6690407-1.6026592,3.6690407-3.8379154c0-2.2140937-1.665863-3.795589-3.6690407-3.795589
		c-2.0243454,0-3.6691856,1.5814953-3.6691856,3.795589C51.7852173,11.926259,53.4300575,13.5289183,55.4544029,13.5289183z"/>
	<path d="M63.5350418,4.377121h2.0455093v4.3438215h5.3982468V4.377121h2.0453644v10.6700897h-2.0453644v-4.5760412h-5.3982468
		v4.5760412h-2.0455093V4.377121z"/>
</g>
</svg>
