<svg id="Слой_1" xmlns="http://www.w3.org/2000/svg" viewBox="0 0 120 20"><style>.st0{fill:#b20520}</style><path d="M83.286 9.128l.28-.053.475-2.6h-.263l.036-.21h1.142c.593 0 .918.324.82.85-.096.533-.54.854-1.128.854h-.5l-.21 1.158h.36l-.036.21h-1.01l.036-.21zm1.128-2.63l-.228 1.238h.5c.365 0 .638-.237.712-.62.07-.382-.118-.62-.483-.62h-.5zM86.334 8.206c-.132.566.057.905.562.905.185 0 .395-.043.54-.127l.07.19c-.197.122-.465.188-.706.188-.624 0-.962-.403-.83-1.132.122-.672.54-1.107 1.146-1.107.483 0 .733.277.645.77a2.02 2.02 0 0 1-.09.316h-1.336zm.04-.207h1.05a.797.797 0 0 0 .04-.154c.052-.308-.11-.475-.388-.475-.338 0-.588.247-.703.63zM88.407 7.336c.23-.15.492-.215.725-.215.5 0 .72.29.637.765l-.203 1.11c-.018.102.004.138.075.138.04 0 .096-.014.153-.04v.17a.962.962 0 0 1-.37.094c-.18 0-.25-.093-.245-.23-.193.15-.434.234-.654.234-.37 0-.558-.227-.5-.557.056-.312.31-.527.684-.575l.646-.093.048-.254c.053-.316-.08-.51-.404-.51-.18 0-.364.058-.522.155l-.07-.19zm.813 1.56l.1-.56-.56.09c-.23.034-.37.166-.4.355-.036.212.078.33.306.33a.817.817 0 0 0 .554-.215zM92.343 6.277c-.48.444-1.173-.092-1.52 1.173.216-.19.52-.33.813-.33.514 0 .764.43.637 1.138-.12.668-.5 1.103-1.17 1.103-.57 0-.917-.315-.697-1.523.325-1.788 1.142-1.437 1.67-1.696l.074-.196.25-.018-.057.35zM90.81 7.692a1.94 1.94 0 0 0-.04.197c-.175.948.03 1.22.396 1.22.426 0 .65-.338.742-.843.106-.584-.06-.896-.426-.896-.255 0-.527.16-.672.322zM94.702 9.264a.944.944 0 0 1-.37.093c-.183 0-.258-.097-.245-.246-.237.163-.514.25-.76.25-.43 0-.602-.276-.523-.706l.23-1.26-.23-.032.018-.197c.158-.027.364-.044.44-.044.127 0 .175.054.153.177l-.242 1.34c-.057.29.04.474.334.474.185 0 .435-.07.62-.22l.316-1.738.364-.023-.333 1.866c-.022.1.008.137.08.137a.36.36 0 0 0 .148-.04v.17zM97.2 9.264a.943.943 0 0 1-.363.093c-.207 0-.272-.123-.237-.304l.307-1.677H96.3l-.355 1.084c-.19.576-.343.897-.68.897a.58.58 0 0 1-.348-.11l.07-.176a.305.305 0 0 0 .176.054c.185 0 .3-.194.47-.72l.334-1.024-.25-.03.017-.185c.154-.013.312-.022.466-.022h1.11l-.337 1.853c-.018.1.01.137.08.137.04 0 .09-.014.153-.04l-.005.17zM99.758 9.264a.944.944 0 0 1-.37.093c-.184 0-.258-.097-.245-.246-.237.163-.514.25-.76.25-.43 0-.602-.276-.523-.706l.23-1.26-.23-.032.018-.197c.158-.027.364-.044.44-.044.126 0 .175.054.153.177l-.24 1.34c-.058.29.04.474.333.474.185 0 .435-.07.62-.22l.316-1.738.363-.023-.334 1.866c-.023.1.008.137.08.137a.36.36 0 0 0 .148-.04v.17zM100.29 9.352l.36-1.96-.23-.03.02-.197c.152-.027.36-.044.434-.044.13 0 .175.054.158.177l-.013.074c.218-.16.47-.25.706-.25.263 0 .417.115.47.313.233-.198.522-.312.782-.312.404 0 .55.26.474.668l-.22 1.208c-.017.1.014.137.08.137a.346.346 0 0 0 .15-.04l.003.17a.96.96 0 0 1-.37.094c-.205 0-.27-.123-.236-.304l.228-1.256c.048-.263-.022-.426-.286-.426a.91.91 0 0 0-.59.243c0 .052-.007.114-.016.175l-.28 1.542-.366.022.28-1.555c.05-.263-.02-.426-.284-.426a.904.904 0 0 0-.567.22l-.317 1.74-.374.022zM104.252 7.336c.228-.15.492-.215.724-.215.5 0 .72.29.637.765l-.202 1.11c-.016.102.006.138.076.138.04 0 .097-.014.154-.04v.17a.963.963 0 0 1-.37.094c-.18 0-.25-.093-.245-.23-.194.15-.435.234-.655.234-.368 0-.557-.227-.5-.557.057-.312.31-.527.685-.575l.646-.093.05-.254c.052-.316-.08-.51-.405-.51-.18 0-.365.058-.523.155l-.07-.19zm.813 1.56l.1-.56-.562.09c-.228.034-.37.166-.4.355-.035.212.08.33.308.33a.817.817 0 0 0 .555-.215zM108.166 9.106c.127 0 .162.062.136.224-.022.11-.097.444-.163.633l-.225.013.08-.637h-.168c-.18 0-.26-.085-.254-.225a1.426 1.426 0 0 1-.76.246c-.43 0-.602-.276-.523-.706l.23-1.26-.23-.032.018-.197c.158-.027.364-.044.44-.044.126 0 .175.054.153.177l-.24 1.34c-.058.29.04.474.333.474.184 0 .435-.074.615-.22l.316-1.738.37-.023-.335 1.85c-.018.1.017.126.087.126h.12zM110.85 9.264a.944.944 0 0 1-.37.093c-.184 0-.26-.097-.245-.246-.238.163-.514.25-.76.25-.43 0-.602-.276-.523-.706l.228-1.26-.228-.032.017-.197a3.56 3.56 0 0 1 .44-.044c.126 0 .175.054.153.177l-.242 1.34c-.056.29.04.474.335.474.184 0 .435-.07.62-.22l.315-1.738.365-.023-.334 1.866c-.02.1.01.137.08.137a.362.362 0 0 0 .15-.04v.17zM113.116 9.264a.926.926 0 0 1-.37.093c-.206 0-.267-.123-.232-.304l.12-.658h-.432l-.48.786c-.07.14-.16.177-.266.177-.1 0-.233-.018-.343-.05l.048-.192.265-.035.483-.716c-.294-.08-.426-.286-.364-.593.065-.386.382-.627.882-.627h.795l-.332 1.853c-.022.1.004.137.08.137a.36.36 0 0 0 .148-.04v.17zm-.444-1.093l.145-.8h-.373c-.294 0-.492.15-.54.4-.05.25.096.4.4.4h.368z"/><g><path d="M85.263 13.078a.926.926 0 0 1-.364.093c-.208 0-.274-.122-.24-.302l.138-.743h-1.01l-.19 1.02-.368.02.36-1.958-.23-.03.02-.198c.153-.028.355-.045.438-.045.127 0 .17.057.154.176l-.145.787h1.006l.17-.93.366-.023-.34 1.866c-.017.1.014.137.084.137.04 0 .092-.014.154-.04l-.005.17zM86.94 10.935c.6 0 .906.43.78 1.12-.13.69-.59 1.12-1.178 1.12-.593 0-.897-.43-.77-1.12s.58-1.12 1.17-1.12zm-.36 1.99c.38 0 .673-.33.77-.87.1-.54-.07-.87-.453-.87-.37 0-.663.33-.76.87-.1.54.07.87.444.87zM89.326 10.957c.444 0 .664.215.598.566a.623.623 0 0 1-.39.48c.24.083.36.276.31.544-.065.373-.408.606-.895.606h-.83l.36-1.96-.234-.03.017-.184a5.01 5.01 0 0 1 .444-.023h.62zm-.386 1.968c.3 0 .505-.15.55-.4.043-.25-.102-.404-.396-.404h-.418l-.153.805h.417zm.162-1.024c.277 0 .444-.135.484-.36.04-.223-.08-.355-.352-.355h-.39l-.137.716h.395zM91.492 10.935c.597 0 .905.43.778 1.12-.128.69-.59 1.12-1.178 1.12-.593 0-.896-.43-.768-1.12.127-.69.58-1.12 1.168-1.12zm-.36 1.99c.378 0 .672-.33.77-.87.1-.54-.072-.87-.454-.87-.37 0-.663.33-.76.87-.1.54.07.87.444.87zM92.854 11.15c.22-.15.48-.215.71-.215.432 0 .62.228.564.536-.114.624-1.103.668-1.186 1.12-.03.172.08.335.386.335.18 0 .37-.057.527-.154l.066.19c-.223.15-.486.215-.737.215-.474 0-.667-.237-.61-.55.114-.623 1.12-.667 1.2-1.115.025-.158-.07-.325-.357-.325a.926.926 0 0 0-.492.154l-.07-.19zM95.626 10.935c.597 0 .905.43.777 1.12-.127.69-.59 1.12-1.177 1.12-.593 0-.896-.43-.77-1.12.13-.69.58-1.12 1.17-1.12zm-.36 1.99c.377 0 .67-.33.768-.87.1-.54-.07-.87-.452-.87-.37 0-.664.33-.76.87-.1.54.07.87.443.87zM97.857 13.166l.36-1.96-.228-.03.016-.197c.154-.028.36-.045.435-.045.133 0 .177.053.16.176l-.014.075c.233-.162.514-.25.76-.25.435 0 .615.277.536.71l-.215 1.165c-.013.1.013.137.083.137.04 0 .097-.014.15-.04v.17a.944.944 0 0 1-.37.094c-.206 0-.267-.122-.232-.298l.22-1.212c.048-.29-.053-.475-.352-.475-.184 0-.448.08-.624.23l-.312 1.73-.373.02zM101.578 10.935c.597 0 .904.43.777 1.12-.127.69-.59 1.12-1.177 1.12-.593 0-.896-.43-.77-1.12.13-.69.58-1.12 1.17-1.12zm-.36 1.99c.377 0 .67-.33.768-.87.1-.54-.07-.87-.452-.87-.37 0-.664.33-.76.87-.1.54.07.87.444.87zM103.625 12.086l-.374.338-.13.72-.37.022.36-1.96-.228-.03.018-.197c.154-.028.356-.045.44-.045.127 0 .17.057.153.176l-.176.95 1.098-1.103h.413l-.922.892.443 1.044.245.035-.017.192c-.145.03-.3.05-.382.05-.1 0-.15-.058-.198-.177l-.373-.91zM106.19 10.935c.598 0 .905.43.777 1.12-.127.69-.588 1.12-1.177 1.12-.593 0-.896-.43-.768-1.12.127-.69.58-1.12 1.168-1.12zm-.36 1.99c.378 0 .672-.33.768-.87.1-.54-.07-.87-.452-.87-.37 0-.663.33-.76.87-.1.54.07.87.444.87zM109.33 13.078a.942.942 0 0 1-.364.093c-.206 0-.272-.122-.237-.302l.306-1.678h-.606l-.355 1.085c-.19.575-.343.896-.68.896a.58.58 0 0 1-.348-.11l.07-.175a.307.307 0 0 0 .176.053c.184 0 .298-.193.47-.72l.333-1.024-.25-.03.018-.185a5.52 5.52 0 0 1 .465-.023h1.11l-.337 1.853c-.018.1.008.137.078.137.04 0 .094-.014.155-.04l-.004.17zM110.21 12.02c-.132.566.057.905.562.905.184 0 .395-.044.54-.128l.07.19c-.197.122-.465.188-.707.188-.624 0-.962-.404-.83-1.133.123-.672.54-1.107 1.146-1.107.485 0 .735.277.647.77a2.02 2.02 0 0 1-.092.315h-1.335zm.04-.207h1.05c.02-.057.03-.105.038-.153.053-.308-.11-.475-.386-.475-.338 0-.59.246-.703.628zM114.062 13.078a.926.926 0 0 1-.365.093c-.206 0-.272-.122-.237-.302l.136-.743h-1.01l-.19 1.02-.368.02.36-1.958-.228-.03.017-.198c.154-.028.356-.045.44-.045.127 0 .17.057.153.176l-.145.787h1.006l.173-.93.364-.023-.338 1.866c-.02.1.012.137.083.137.04 0 .092-.014.153-.04l-.004.17zM116.618 13.078a.944.944 0 0 1-.37.093c-.183 0-.258-.096-.245-.245-.237.162-.514.25-.76.25-.43 0-.6-.277-.522-.707l.23-1.26-.23-.032.018-.197a3.56 3.56 0 0 1 .44-.045c.127 0 .175.053.153.176l-.24 1.34c-.058.29.04.475.333.475.185 0 .435-.07.62-.22l.316-1.74.364-.02-.334 1.865c-.022.1.01.137.08.137a.362.362 0 0 0 .148-.04v.17zM118.885 13.078a.926.926 0 0 1-.37.093c-.206 0-.267-.122-.232-.302l.12-.66h-.432l-.478.787c-.07.14-.162.176-.267.176-.102 0-.234-.017-.343-.048l.048-.193.264-.036.483-.716c-.295-.08-.426-.286-.365-.593.066-.387.382-.628.883-.628h.795l-.334 1.853c-.022.1.005.137.08.137a.36.36 0 0 0 .15-.04v.17zm-.444-1.093l.146-.8h-.373c-.295 0-.492.15-.54.4-.05.25.096.4.4.4h.368z"/></g><path class="st0" d="M77.1 1.22h2.046v16.985H77.1z"/><path d="M6.726 4.124c3.184 0 5.756 2.34 5.756 5.567 0 3.248-2.572 5.61-5.735 5.61C3.563 15.3.99 12.938.99 9.69c0-3.225 2.573-5.566 5.736-5.566zm.02 9.405c2.004 0 3.67-1.604 3.67-3.84 0-2.213-1.666-3.795-3.67-3.795-2.023 0-3.668 1.582-3.668 3.796 0 2.236 1.645 3.84 3.67 3.84zM20.007 4.124c1.413 0 2.994.485 4.006 1.56l-.97 1.435c-.717-.72-1.834-1.225-2.952-1.225-2.15 0-3.71 1.624-3.71 3.796 0 2.173 1.56 3.84 3.774 3.84 1.18 0 2.468-.57 3.29-1.435l.822 1.497c-.97 1.033-2.593 1.708-4.26 1.708-3.373 0-5.714-2.383-5.714-5.588 0-3.163 2.362-5.588 5.715-5.588zM29.628 6.127h-3.71v-1.75h9.467v1.75h-3.733v8.92h-2.024v-8.92zM42.684 4.124c3.016 0 4.618 2.256 4.618 4.998 0 .274-.042.57-.084.864h-7.76c.105 2.3 1.75 3.543 3.67 3.543 1.138 0 2.298-.486 3.14-1.245l.866 1.497C46.1 14.732 44.477 15.3 43 15.3c-3.352 0-5.672-2.425-5.672-5.588 0-3.395 2.32-5.588 5.356-5.588zm2.552 4.386c-.064-1.834-1.202-2.804-2.594-2.804-1.58 0-2.826 1.033-3.12 2.804h5.714zM55.433 4.124c3.184 0 5.757 2.34 5.757 5.567 0 3.248-2.573 5.61-5.736 5.61-3.184 0-5.756-2.362-5.756-5.61 0-3.225 2.572-5.566 5.735-5.566zm.02 9.405c2.005 0 3.67-1.604 3.67-3.84 0-2.213-1.665-3.795-3.67-3.795-2.023 0-3.668 1.582-3.668 3.796 0 2.236 1.645 3.84 3.67 3.84zM63.535 4.377h2.046V8.72h5.4V4.378h2.044v10.67H70.98V10.47h-5.4v4.577h-2.045V4.377z"/></svg>