<svg width="120" height="16" viewBox="0 0 120 16" xmlns="http://www.w3.org/2000/svg" xmlns:xlink="http://www.w3.org/1999/xlink"><title>Letter</title><defs><path id="a" d="M0 0h119.848v15.35H0V0z"/></defs><g fill="none" fill-rule="evenodd"><path d="M73.913 6.763V6.63a1.78 1.78 0 0 1 .378-.11V3.787a1.505 1.505 0 0 1-.377-.115V3.54h1.165v.133a2.27 2.27 0 0 1-.345.115v2.735h1.377V3.788a1.975 1.975 0 0 1-.17-.046 1.367 1.367 0 0 1-.176-.07V3.54h1.165v.133a1.84 1.84 0 0 1-.378.115v2.735h.53c0 .062-.004.133-.01.214a8.64 8.64 0 0 1-.088.72h-.117l-.2-.694h-2.754zM78.408 4.608c-.176 0-.31.06-.4.177-.093.118-.15.326-.167.624h1.014a1.322 1.322 0 0 0 .01-.158c0-.196-.037-.353-.11-.47-.075-.116-.19-.174-.346-.174zm.842 1.832a.463.463 0 0 1-.115.148.84.84 0 0 1-.18.12 1.073 1.073 0 0 1-.465.11c-.18 0-.34-.03-.48-.085a.907.907 0 0 1-.344-.244 1.08 1.08 0 0 1-.21-.38 1.622 1.622 0 0 1-.07-.5c0-.392.09-.69.27-.897.182-.205.438-.308.77-.308.107 0 .213.014.318.044a.74.74 0 0 1 .278.144.735.735 0 0 1 .2.27c.05.11.074.25.074.416a1.762 1.762 0 0 1-.032.33h-1.437c0 .13.017.25.05.363.03.112.08.21.144.292a.68.68 0 0 0 .245.196c.098.05.213.072.345.072.108 0 .217-.015.327-.046.11-.03.193-.07.25-.12l.063.074zM80.73 6.763h-.99v-.116a.753.753 0 0 1 .14-.062 4.28 4.28 0 0 1 .162-.048V4.69a4.28 4.28 0 0 1-.16-.048.737.737 0 0 1-.143-.062v-.12h.99v.12c-.072.043-.162.08-.273.11v.806h1.022V4.69a.654.654 0 0 1-.277-.11v-.12h.995v.12a.848.848 0 0 1-.304.11v1.847c.055.012.108.026.16.04.053.017.1.04.144.07v.116h-.995v-.116a.654.654 0 0 1 .276-.11V5.7h-1.023v.837a.8.8 0 0 1 .157.046c.043.018.08.04.115.064v.116zM84.077 6.763h-1.023v-.116a1.28 1.28 0 0 1 .304-.11V4.663h-.437l-.197.552h-.117a8.912 8.912 0 0 1-.054-.755h2.026c-.003.11-.008.23-.015.362-.008.13-.02.262-.04.393h-.115l-.198-.552h-.437v1.874c.144.037.245.074.304.11v.116zM86.162 4.69c-.15 0-.27.048-.36.143a.82.82 0 0 0-.188.392v1.29a.66.66 0 0 0 .187.075c.07.017.16.025.27.025.102 0 .193-.026.274-.078a.655.655 0 0 0 .208-.22c.056-.096.1-.207.13-.335a1.8 1.8 0 0 0 .047-.42c0-.127-.01-.243-.03-.35a.895.895 0 0 0-.098-.275.485.485 0 0 0-.175-.182.51.51 0 0 0-.265-.065zm-.244 2.993h-1.022V7.57c.104-.05.206-.088.304-.112v-2.73l-.304-.038v-.12c.1-.043.2-.077.302-.103.103-.026.203-.047.3-.062h.116v.515h.005a.922.922 0 0 1 .257-.375.645.645 0 0 1 .433-.14c.273 0 .485.09.636.27.15.183.225.477.225.886 0 .194-.024.37-.075.526-.05.156-.123.288-.217.396a.95.95 0 0 1-.34.248 1.103 1.103 0 0 1-.445.088c-.113 0-.202-.007-.266-.02a1.092 1.092 0 0 1-.213-.072v.732a.775.775 0 0 1 .304.11v.115zM89.98 4.69c-.15 0-.27.048-.36.143a.82.82 0 0 0-.188.392v1.29a.66.66 0 0 0 .186.075c.07.017.16.025.27.025.1 0 .193-.026.274-.078a.655.655 0 0 0 .207-.22c.056-.096.1-.207.13-.335a1.8 1.8 0 0 0 .046-.42c0-.127-.01-.243-.03-.35a.895.895 0 0 0-.096-.275.485.485 0 0 0-.175-.182.51.51 0 0 0-.265-.065zm-.244 2.993h-1.022V7.57c.104-.05.205-.088.303-.112v-2.73l-.303-.038v-.12c.098-.043.198-.077.3-.103.104-.026.205-.047.303-.062h.115v.515h.005a.922.922 0 0 1 .257-.375.645.645 0 0 1 .433-.14c.274 0 .485.09.636.27.15.183.225.477.225.886 0 .194-.025.37-.075.526-.05.156-.123.288-.217.396a.95.95 0 0 1-.34.248 1.103 1.103 0 0 1-.445.088c-.113 0-.202-.007-.266-.02a1.092 1.092 0 0 1-.212-.072v.732a.775.775 0 0 1 .304.11v.115zM92.435 4.608c-.176 0-.31.06-.4.177-.093.118-.15.326-.167.624h1.013a1.322 1.322 0 0 0 .01-.158c0-.196-.036-.353-.11-.47-.074-.116-.19-.174-.345-.174zm.842 1.832a.463.463 0 0 1-.115.148.84.84 0 0 1-.18.12 1.073 1.073 0 0 1-.465.11c-.18 0-.34-.03-.48-.085a.907.907 0 0 1-.344-.244 1.08 1.08 0 0 1-.21-.38 1.622 1.622 0 0 1-.07-.5c0-.392.09-.69.27-.897.182-.205.438-.308.77-.308.107 0 .213.014.317.044a.74.74 0 0 1 .28.144.735.735 0 0 1 .197.27c.05.11.076.25.076.416a1.762 1.762 0 0 1-.032.33h-1.436c0 .13.016.25.05.363.03.112.08.21.144.292a.68.68 0 0 0 .244.196c.098.05.213.072.345.072.108 0 .217-.015.327-.046.11-.03.193-.07.25-.12l.063.074zM94.585 6.532a.43.43 0 0 0 .203-.046.545.545 0 0 0 .147-.11.684.684 0 0 0 .147-.244v-.484c-.178 0-.324.01-.437.028a.747.747 0 0 0-.268.087.32.32 0 0 0-.133.15.533.533 0 0 0-.037.205c0 .132.034.234.102.306a.36.36 0 0 0 .275.108m.89-.373c0 .067 0 .125.003.174l.01.157.317.047v.097a1.96 1.96 0 0 1-.525.175h-.115a.692.692 0 0 1-.055-.234 6.22 6.22 0 0 1-.014-.28h-.023a.65.65 0 0 1-.41.476.703.703 0 0 1-.263.046.633.633 0 0 1-.458-.17.59.59 0 0 1-.177-.447.64.64 0 0 1 .085-.347.577.577 0 0 1 .25-.214c.112-.053.248-.09.41-.114a7.02 7.02 0 0 1 .568-.053c.012-.132.016-.25.01-.357a.85.85 0 0 0-.05-.27.38.38 0 0 0-.128-.176.37.37 0 0 0-.224-.062c-.043 0-.09.002-.145.006a.535.535 0 0 0-.158.04l-.216.552h-.12a3.132 3.132 0 0 1-.08-.286 1.743 1.743 0 0 1-.044-.29c.116-.07.246-.125.39-.165.14-.04.3-.06.476-.06.156 0 .28.022.375.067a.534.534 0 0 1 .31.407c.016.085.023.17.023.257 0 .184-.003.36-.01.532-.01.17-.012.333-.012.49M96.58 5.56c0 .192.016.355.052.488a.975.975 0 0 0 .145.326.563.563 0 0 0 .47.24.45.45 0 0 0 .416-.247c.094-.165.14-.4.14-.707 0-.312-.06-.54-.18-.685a.61.61 0 0 0-.757-.142.72.72 0 0 0-.237.198 2.636 2.636 0 0 0-.05.53m-.434-.004c0-.393.032-.722.097-.988.064-.265.162-.48.293-.64.13-.16.296-.275.496-.343.2-.067.434-.1.702-.1l.3-.23h.12a1.9 1.9 0 0 1-.053.355 2.162 2.162 0 0 1-.04.15.707.707 0 0 1-.036.092c-.283 0-.523.014-.72.042-.197.027-.36.084-.49.17a.79.79 0 0 0-.293.373c-.065.163-.108.378-.13.645h.023a1.088 1.088 0 0 1 .367-.424c.08-.055.168-.1.26-.133a.812.812 0 0 1 .282-.05c.628 0 .942.375.942 1.127 0 .178-.025.342-.074.49-.05.15-.12.278-.217.385a.995.995 0 0 1-.346.25 1.12 1.12 0 0 1-.457.09c-.153 0-.294-.028-.42-.084a.882.882 0 0 1-.323-.25c-.09-.108-.158-.24-.207-.395a1.75 1.75 0 0 1-.074-.532M98.674 4.46h.976v.12a1.66 1.66 0 0 1-.276.11v1.262l-.05.428h.022l.18-.345.985-1.575h.623v.12a.956.956 0 0 1-.304.11v1.847c.057.015.112.03.165.048a.642.642 0 0 1 .138.062v.116h-.976v-.116a1.08 1.08 0 0 1 .276-.11V5.22l.046-.364h-.024l-.175.346-.975 1.56h-.63v-.115c.05-.024.102-.045.15-.062.05-.017.1-.033.153-.048V4.69a.746.746 0 0 1-.304-.11v-.12zM101.833 6.367c.043-.074.08-.172.115-.295a3.67 3.67 0 0 0 .085-.405 5.92 5.92 0 0 0 .072-.93.866.866 0 0 1-.168-.07 1.326 1.326 0 0 1-.14-.087v-.12h1.883v.12a.966.966 0 0 1-.304.11v1.847a1.09 1.09 0 0 1 .304.11v.116h-.99v-.116a.7.7 0 0 1 .27-.11V4.663h-.607a8.185 8.185 0 0 1-.027.518c-.016.183-.04.363-.07.54-.03.176-.07.342-.12.497-.048.155-.108.285-.18.39a.526.526 0 0 1-.188.186.28.28 0 0 1-.188.034.918.918 0 0 1-.203-.437l.065-.116.39.093zM104.085 4.46h.976v.12a1.66 1.66 0 0 1-.276.11v1.262l-.05.428h.023l.18-.345.985-1.575h.622v.12a.956.956 0 0 1-.304.11v1.847c.058.015.113.03.166.048a.642.642 0 0 1 .138.062v.116h-.976v-.116a1.08 1.08 0 0 1 .276-.11V5.22l.046-.364h-.023l-.175.346-.976 1.56h-.63v-.115c.05-.024.102-.045.15-.062.05-.017.1-.033.153-.048V4.69a.746.746 0 0 1-.305-.11v-.12zM108.423 6.763H107.4v-.116a1.28 1.28 0 0 1 .304-.11V4.663h-.437l-.198.552h-.118a8.912 8.912 0 0 1-.054-.755h2.027c-.003.11-.01.23-.016.362-.01.13-.02.262-.04.393h-.116l-.198-.552h-.437v1.874c.143.037.244.074.303.11v.116zM110.1 6.532a.43.43 0 0 0 .202-.046.545.545 0 0 0 .147-.11.684.684 0 0 0 .146-.244v-.484c-.178 0-.323.01-.437.028a.747.747 0 0 0-.268.087.32.32 0 0 0-.134.15.533.533 0 0 0-.037.205c0 .132.035.234.103.306a.36.36 0 0 0 .276.108m.888-.373c0 .067 0 .125.004.174l.01.157.317.047v.097a1.96 1.96 0 0 1-.525.175h-.116a.692.692 0 0 1-.056-.234 6.22 6.22 0 0 1-.014-.28h-.023a.65.65 0 0 1-.41.476.703.703 0 0 1-.262.046.633.633 0 0 1-.46-.17.59.59 0 0 1-.176-.447.64.64 0 0 1 .085-.347.577.577 0 0 1 .25-.214c.11-.053.247-.09.41-.114a7.02 7.02 0 0 1 .567-.053c.012-.132.016-.25.01-.357a.85.85 0 0 0-.05-.27.38.38 0 0 0-.128-.176.37.37 0 0 0-.224-.062c-.043 0-.09.002-.145.006a.535.535 0 0 0-.16.04l-.215.552h-.12a3.132 3.132 0 0 1-.08-.286 1.743 1.743 0 0 1-.044-.29c.116-.07.246-.125.39-.165.142-.04.3-.06.476-.06.156 0 .28.022.375.067a.534.534 0 0 1 .31.407c.016.085.024.17.024.257 0 .184-.003.36-.01.532-.01.17-.012.333-.012.49M111.65 6.763v-.116a.98.98 0 0 1 .304-.11V4.69a.78.78 0 0 1-.303-.11v-.12h.99v.12c-.07.043-.16.08-.27.11v1.87h.97V4.69a1.014 1.014 0 0 1-.27-.11v-.12h.99v.12c-.04.02-.085.04-.134.06-.05.018-.106.035-.17.05v1.87h.41l-.02.442a15.08 15.08 0 0 1-.03.442H114l-.203-.68h-2.146zM114.524 4.46h.976v.12a1.66 1.66 0 0 1-.276.11v1.262l-.05.428h.023l.18-.345.985-1.575h.622v.12a.956.956 0 0 1-.304.11v1.847c.058.015.113.03.165.048a.642.642 0 0 1 .14.062v.116h-.978v-.116a1.08 1.08 0 0 1 .277-.11V5.22l.046-.364h-.023l-.175.346-.977 1.56h-.63v-.115c.052-.024.102-.045.15-.062.05-.017.1-.033.153-.048V4.69a.746.746 0 0 1-.304-.11v-.12zM117.39 4.46h.975v.12a1.66 1.66 0 0 1-.276.11v1.262l-.052.428h.023l.18-.345.986-1.575h.622v.12a.956.956 0 0 1-.304.11v1.847c.058.015.113.03.165.048a.642.642 0 0 1 .138.062v.116h-.977v-.116a1.08 1.08 0 0 1 .278-.11V5.22l.046-.364h-.023l-.174.346-.977 1.56h-.63v-.115c.05-.024.1-.045.15-.062.05-.017.1-.033.152-.048V4.69a.746.746 0 0 1-.303-.11v-.12zM74.95 10.856h-.99v-.115a.753.753 0 0 1 .142-.06 4.28 4.28 0 0 1 .16-.05V8.784a4.28 4.28 0 0 1-.16-.05.737.737 0 0 1-.143-.06v-.12h.99v.12c-.07.042-.162.08-.272.11v.806H75.7v-.806a.654.654 0 0 1-.276-.11v-.12h.994v.12a.848.848 0 0 1-.303.11v1.846c.055.013.108.026.16.042.053.015.1.038.143.07v.114h-.994v-.115a.654.654 0 0 1 .276-.11v-.838h-1.022v.838a.8.8 0 0 1 .156.046c.043.02.08.04.115.065v.116zM77.275 9.705c0 .138.013.268.04.39.025.124.067.23.124.32a.62.62 0 0 0 .222.215.663.663 0 0 0 .332.08c.165 0 .3-.083.407-.245.107-.163.16-.416.16-.76 0-.142-.013-.273-.04-.394a1.022 1.022 0 0 0-.12-.317.583.583 0 0 0-.52-.292.507.507 0 0 0-.44.243c-.11.163-.165.416-.165.76m-.442 0c0-.194.025-.365.076-.514.05-.148.122-.274.218-.376a.94.94 0 0 1 .343-.235c.134-.055.282-.082.445-.082.19 0 .355.03.493.088.138.058.25.14.338.246.088.106.152.233.194.38.04.147.062.312.062.493 0 .386-.098.684-.295.893-.196.21-.46.313-.792.313-.184 0-.344-.027-.48-.084a.873.873 0 0 1-.335-.244 1.053 1.053 0 0 1-.2-.382 1.723 1.723 0 0 1-.067-.495M80.135 10.658a.8.8 0 0 0 .163.014h.164c.18 0 .316-.04.405-.118.09-.078.133-.19.133-.334 0-.15-.053-.263-.16-.338a.707.707 0 0 0-.415-.113h-.29v.888zm0-1.027l.517-.045a.52.52 0 0 0 .17-.154.477.477 0 0 0 .086-.296c0-.15-.046-.254-.137-.31-.09-.058-.225-.086-.402-.086-.035 0-.074 0-.117.002a.535.535 0 0 0-.115.016v.875zm1.326.553a.578.578 0 0 1-.307.53 1.07 1.07 0 0 1-.326.122c-.124.026-.253.04-.39.04a9.5 9.5 0 0 1-.383-.01 3.725 3.725 0 0 0-.195-.01h-.444v-.114c.095-.048.197-.085.304-.11V8.784a.892.892 0 0 1-.304-.11v-.12h.415a7.902 7.902 0 0 0 .34-.01 6.255 6.255 0 0 1 .29-.01c.273 0 .485.042.636.123.15.08.227.224.227.426 0 .074-.016.14-.047.198-.03.06-.07.11-.12.153a.807.807 0 0 1-.348.17c.086.007.168.025.247.052.078.028.148.065.208.113.06.047.108.106.144.175.035.07.053.15.053.24zM82.345 9.705c0 .138.013.268.04.39.025.124.067.23.124.32a.62.62 0 0 0 .222.215.663.663 0 0 0 .332.08c.165 0 .3-.083.407-.245.107-.163.16-.416.16-.76 0-.142-.013-.273-.04-.394a1.022 1.022 0 0 0-.12-.317.583.583 0 0 0-.52-.292.507.507 0 0 0-.44.243c-.11.163-.165.416-.165.76m-.442 0c0-.194.025-.365.076-.514.05-.148.122-.274.218-.376a.94.94 0 0 1 .343-.235c.134-.055.282-.082.445-.082.19 0 .355.03.493.088.138.058.25.14.338.246.088.106.152.233.194.38.04.147.062.312.062.493 0 .386-.098.684-.295.893-.196.21-.46.313-.792.313-.184 0-.344-.027-.48-.084a.873.873 0 0 1-.335-.244 1.053 1.053 0 0 1-.2-.382 1.723 1.723 0 0 1-.067-.495M86.204 8.553c-.003.12-.01.244-.016.373-.008.13-.02.257-.04.383h-.12l-.202-.554h-.62v1.874c.174.034.312.07.413.11v.116h-1.134v-.115a.746.746 0 0 1 .152-.068c.05-.016.1-.03.152-.042V8.78a.87.87 0 0 1-.304-.107v-.12h1.718zM86.968 9.705c0 .138.013.268.04.39.026.124.067.23.124.32a.62.62 0 0 0 .223.215.663.663 0 0 0 .332.08c.166 0 .3-.083.407-.245.106-.163.16-.416.16-.76 0-.142-.014-.273-.04-.394a1.022 1.022 0 0 0-.122-.317.583.583 0 0 0-.52-.292.507.507 0 0 0-.438.243c-.11.163-.166.416-.166.76m-.442 0c0-.194.026-.365.076-.514.05-.148.124-.274.22-.376a.94.94 0 0 1 .342-.235c.134-.055.282-.082.444-.082.19 0 .355.03.493.088.14.058.252.14.34.246.087.106.152.233.193.38.042.147.062.312.062.493 0 .386-.098.684-.294.893-.196.21-.46.313-.792.313-.184 0-.343-.027-.478-.084a.873.873 0 0 1-.337-.244 1.053 1.053 0 0 1-.2-.382 1.723 1.723 0 0 1-.067-.495M91.265 10.856h-.99v-.115a.778.778 0 0 1 .304-.11V8.784a1.73 1.73 0 0 1-.176-.05.637.637 0 0 1-.13-.06v-.12h2.455v.12c-.04.024-.085.047-.134.068a.555.555 0 0 1-.17.042v1.846a.958.958 0 0 1 .303.11v.116h-.99v-.115c.03-.02.066-.04.107-.06a.905.905 0 0 1 .164-.05V8.756h-1.017v1.874a1.49 1.49 0 0 1 .272.11v.116zM93.586 9.705c0 .138.013.268.04.39.025.124.066.23.123.32a.62.62 0 0 0 .222.215.663.663 0 0 0 .332.08c.166 0 .302-.083.407-.245.107-.163.16-.416.16-.76 0-.142-.013-.273-.04-.394a1.022 1.022 0 0 0-.12-.317.583.583 0 0 0-.52-.292.507.507 0 0 0-.44.243c-.11.163-.164.416-.164.76m-.443 0c0-.194.026-.365.076-.514.05-.148.123-.274.218-.376a.94.94 0 0 1 .344-.235c.133-.055.28-.082.444-.082.19 0 .354.03.492.088.14.058.25.14.34.246.086.106.15.233.192.38.042.147.062.312.062.493 0 .386-.098.684-.294.893-.197.21-.46.313-.792.313-.185 0-.344-.027-.48-.084a.873.873 0 0 1-.335-.244 1.053 1.053 0 0 1-.2-.382 1.723 1.723 0 0 1-.067-.495M97.044 8.553h.89v.12a.436.436 0 0 1-.123.065c-.05.018-.112.04-.186.064a12.067 12.067 0 0 1-.7.77c.068.073.14.154.214.243l.228.276c.077.097.154.19.23.282.077.093.152.178.226.258l.217.11v.116h-.54l-.148-.106a6.646 6.646 0 0 1-.377-.497 20.39 20.39 0 0 0-.345-.488h-.185v.865c.062.016.118.032.168.05a.54.54 0 0 1 .132.06v.116h-1.018v-.115a.98.98 0 0 1 .304-.11V8.784a1.06 1.06 0 0 1-.303-.11v-.12h.944v.12a.757.757 0 0 1-.226.11v.86l.213-.045c.123-.142.24-.274.35-.397.11-.123.213-.257.31-.4-.054-.022-.102-.043-.147-.063a1.1 1.1 0 0 1-.126-.067v-.12zM98.715 9.705c0 .138.014.268.04.39.026.124.067.23.124.32a.62.62 0 0 0 .222.215.663.663 0 0 0 .332.08c.166 0 .302-.083.407-.245.107-.163.16-.416.16-.76 0-.142-.013-.273-.04-.394a1.022 1.022 0 0 0-.12-.317.583.583 0 0 0-.52-.292.507.507 0 0 0-.44.243c-.11.163-.165.416-.165.76m-.442 0c0-.194.026-.365.076-.514.05-.148.123-.274.218-.376a.94.94 0 0 1 .343-.235c.135-.055.283-.082.446-.082.19 0 .354.03.492.088.138.058.25.14.34.246.086.106.15.233.192.38.042.147.062.312.062.493 0 .386-.098.684-.294.893-.197.21-.46.313-.792.313-.185 0-.344-.027-.48-.084a.873.873 0 0 1-.335-.244 1.053 1.053 0 0 1-.2-.382 1.723 1.723 0 0 1-.067-.495M101.15 10.46c.044-.074.083-.172.117-.295a3.67 3.67 0 0 0 .085-.405 5.92 5.92 0 0 0 .07-.93.866.866 0 0 1-.167-.07 1.326 1.326 0 0 1-.14-.087v-.12h1.883v.12a.966.966 0 0 1-.304.11v1.847a1.09 1.09 0 0 1 .304.11v.116h-.99v-.115a.7.7 0 0 1 .272-.11V8.756h-.608a8.185 8.185 0 0 1-.028.518c-.015.183-.038.362-.07.54-.03.175-.07.34-.12.496-.048.155-.107.285-.178.39a.526.526 0 0 1-.19.186.28.28 0 0 1-.188.034.918.918 0 0 1-.202-.437l.064-.115.39.092zM104.435 8.7c-.175 0-.31.06-.4.178-.093.118-.148.326-.167.624h1.014a1.322 1.322 0 0 0 .01-.156c0-.197-.038-.354-.112-.47-.073-.117-.19-.175-.345-.175zm.843 1.834a.463.463 0 0 1-.115.147.84.84 0 0 1-.18.12 1.073 1.073 0 0 1-.465.11c-.18 0-.34-.027-.48-.084a.907.907 0 0 1-.344-.244 1.08 1.08 0 0 1-.21-.38 1.622 1.622 0 0 1-.07-.497c0-.393.09-.693.27-.898.18-.206.438-.31.77-.31.107 0 .213.016.317.045a.74.74 0 0 1 .28.145.735.735 0 0 1 .198.27c.05.11.076.25.076.416a1.762 1.762 0 0 1-.032.332h-1.437c0 .13.016.25.048.36.032.113.08.21.145.293a.68.68 0 0 0 .244.196c.098.048.213.07.346.07.107 0 .216-.014.326-.044.11-.03.194-.07.25-.12l.064.074zM106.756 10.856h-.99v-.115a.753.753 0 0 1 .142-.06 4.28 4.28 0 0 1 .162-.05V8.784a4.28 4.28 0 0 1-.162-.05.737.737 0 0 1-.142-.06v-.12h.99v.12c-.07.042-.16.08-.272.11v.806h1.023v-.806a.654.654 0 0 1-.277-.11v-.12h.995v.12a.848.848 0 0 1-.304.11v1.846c.056.013.11.026.162.042.052.015.1.038.143.07v.114h-.995v-.115a.654.654 0 0 1 .277-.11v-.838h-1.023v.838a.8.8 0 0 1 .157.046c.044.02.082.04.116.065v.116zM108.63 8.553h.976v.12a1.66 1.66 0 0 1-.276.11v1.262l-.05.43h.022l.18-.347.985-1.575h.622v.12a.956.956 0 0 1-.305.11v1.847c.058.016.114.032.166.05a.642.642 0 0 1 .14.06v.116h-.977v-.115a1.08 1.08 0 0 1 .276-.11V9.313l.045-.364h-.023l-.175.345-.976 1.56h-.63v-.114c.052-.024.103-.044.152-.06.05-.018.1-.034.152-.05V8.784a.746.746 0 0 1-.304-.11v-.12zM112.858 8.756a3.187 3.187 0 0 0-.314-.028c-.19-.003-.32.04-.394.132a.557.557 0 0 0-.108.357c0 .15.056.274.17.37.11.097.285.145.52.145h.126v-.976zm-1.248.474c0-.104.016-.2.05-.285a.55.55 0 0 1 .16-.22.788.788 0 0 1 .275-.146c.112-.037.248-.054.408-.054.037 0 .088 0 .154.004l.21.01.214.01.164.003h.332v.12a.378.378 0 0 1-.104.06.995.995 0 0 1-.2.05v1.847c.113.034.215.07.304.11v.116h-.99v-.115a.745.745 0 0 1 .126-.06c.045-.018.093-.034.146-.05v-.778l-.337.046a7.78 7.78 0 0 0-.215.39c-.08.15-.19.305-.327.462l-.143.106h-.52v-.115l.258-.11c.138-.144.255-.287.35-.428.095-.14.18-.26.258-.36a.914.914 0 0 1-.207-.06.62.62 0 0 1-.313-.303.574.574 0 0 1-.05-.25zM2.726 8.808c.074.362.2.688.378.976.178.29.414.52.71.69.293.173.662.26 1.104.26.442 0 .814-.087 1.115-.26.3-.17.54-.4.718-.69.18-.288.305-.614.378-.976a5.714 5.714 0 0 0 0-2.238 2.867 2.867 0 0 0-.377-.976 2.1 2.1 0 0 0-.717-.69c-.3-.18-.673-.268-1.115-.268-.442 0-.81.09-1.105.267-.295.178-.53.408-.71.69a2.862 2.862 0 0 0-.377.977 5.713 5.713 0 0 0 0 2.238M.35 5.62c.233-.62.565-1.147.995-1.583.43-.436.945-.773 1.547-1.013.6-.24 1.277-.36 2.026-.36.75 0 1.428.12 2.035.36A4.44 4.44 0 0 1 8.51 4.037c.43.436.76.964.995 1.584.233.62.35 1.312.35 2.074 0 .76-.117 1.45-.35 2.063a4.472 4.472 0 0 1-.995 1.574c-.43.437-.95.772-1.557 1.005-.607.234-1.286.35-2.035.35-.75 0-1.425-.116-2.026-.35a4.342 4.342 0 0 1-1.547-1.004A4.47 4.47 0 0 1 .35 9.758C.116 9.143 0 8.455 0 7.694 0 6.932.116 6.24.35 5.62M13.75 10.08c.117.202.267.367.452.496.184.13.396.224.635.286.24.06.488.092.746.092.184 0 .378-.02.58-.065.203-.044.387-.11.553-.203.166-.092.304-.215.414-.37a.968.968 0 0 0 .166-.58c0-.392-.26-.687-.783-.883-.522-.196-1.25-.393-2.182-.59a12.77 12.77 0 0 1-1.114-.303 3.783 3.783 0 0 1-.967-.46c-.284-.19-.51-.43-.682-.718-.173-.29-.258-.642-.258-1.06 0-.613.12-1.117.36-1.51.238-.393.554-.703.947-.93a4.155 4.155 0 0 1 1.327-.48c.49-.09.994-.137 1.51-.137s1.016.05 1.5.147c.486.098.92.265 1.3.498.38.233.697.543.95.93.25.387.4.875.45 1.464h-2.487c-.037-.503-.227-.844-.57-1.022-.345-.178-.75-.267-1.217-.267-.147 0-.307.01-.478.027-.173.02-.33.06-.47.12a.97.97 0 0 0-.36.267c-.098.116-.147.273-.147.47 0 .233.086.423.258.57.172.147.396.267.672.36.277.09.593.174.95.248.355.074.718.153 1.086.24.38.085.753.19 1.115.312.362.123.685.286.967.49.283.2.51.453.682.754.172.3.258.672.258 1.114 0 .626-.126 1.15-.378 1.575a3.02 3.02 0 0 1-.985 1.022c-.407.258-.87.44-1.392.544a8.123 8.123 0 0 1-3.214-.01 4.274 4.274 0 0 1-1.41-.553c-.41-.258-.75-.6-1.013-1.022-.263-.424-.407-.955-.43-1.594h2.485c0 .284.058.526.175.73M35.983 5.152c-.313-.344-.79-.516-1.428-.516-.417 0-.764.07-1.04.212a1.98 1.98 0 0 0-.663.524c-.166.21-.283.43-.35.664a2.99 2.99 0 0 0-.12.626h4.255c-.123-.663-.34-1.167-.654-1.51m-2.957 5.01c.393.38.958.57 1.695.57.53 0 .983-.13 1.364-.395.38-.264.614-.544.7-.838h2.303c-.37 1.14-.934 1.957-1.695 2.448-.762.492-1.682.737-2.763.737-.75 0-1.426-.12-2.027-.36a4.214 4.214 0 0 1-1.53-1.02 4.597 4.597 0 0 1-.966-1.585 5.797 5.797 0 0 1-.34-2.026c0-.713.116-1.376.35-1.99a4.663 4.663 0 0 1 .994-1.593c.43-.447.943-.8 1.54-1.058a4.93 4.93 0 0 1 1.98-.387c.81 0 1.516.157 2.117.47a4.23 4.23 0 0 1 1.483 1.26c.387.53.666 1.13.838 1.807.172.675.233 1.38.184 2.118h-6.87c.037.847.25 1.46.644 1.842M43.23 8.808c.075.362.2.688.38.976.177.29.413.52.708.69.294.173.663.26 1.105.26.442 0 .813-.087 1.114-.26.3-.17.54-.4.72-.69.177-.288.303-.614.376-.976a5.714 5.714 0 0 0 0-2.238 2.867 2.867 0 0 0-.377-.976 2.1 2.1 0 0 0-.72-.69c-.3-.18-.67-.268-1.113-.268-.442 0-.81.09-1.105.267-.295.178-.53.408-.71.69a2.862 2.862 0 0 0-.377.977 5.713 5.713 0 0 0 0 2.238M40.856 5.62c.233-.62.565-1.147.995-1.583.43-.436.945-.773 1.547-1.013.6-.24 1.277-.36 2.026-.36.75 0 1.427.12 2.035.36a4.44 4.44 0 0 1 1.557 1.013c.43.436.76.964.994 1.584.232.62.35 1.312.35 2.074 0 .76-.118 1.45-.35 2.063a4.472 4.472 0 0 1-.995 1.574c-.43.437-.95.772-1.557 1.005-.608.234-1.286.35-2.035.35-.75 0-1.425-.116-2.026-.35a4.342 4.342 0 0 1-1.547-1.004 4.47 4.47 0 0 1-.995-1.573c-.234-.614-.35-1.302-.35-2.063 0-.762.116-1.453.35-2.073M54.54 2.923V4.25h.056c.332-.554.76-.956 1.29-1.207a3.728 3.728 0 0 1 1.62-.378c.7 0 1.274.095 1.722.285.45.19.802.455 1.06.793.258.337.44.75.543 1.233.105.486.157 1.023.157 1.612v5.858h-2.615v-5.38c0-.785-.123-1.37-.37-1.758-.244-.387-.68-.58-1.306-.58-.712 0-1.228.212-1.547.635-.32.424-.48 1.12-.48 2.09v4.993h-2.616V2.923h2.487z" fill="#000"/><mask id="b" fill="#fff"><use xlink:href="#a"/></mask><path d="M68.663 0h-2.558v15.35h2.558V0z" fill="#D92F2F" mask="url(#b)"/><path d="M25.94 8.187v1.34c0 .44.12.745.266.893.148.147.443.22.885.22.148 0 .29-.006.424-.018.135-.012.264-.03.387-.055v2.026c-.22.037-.466.06-.736.074-.27.012-.534.018-.792.018-.405 0-.79-.027-1.15-.083a2.713 2.713 0 0 1-.96-.322 1.71 1.71 0 0 1-.653-.682c-.16-.294-.24-.68-.24-1.16l.01-1.74 2.56-.51z" fill="#000" mask="url(#b)"/><path d="M28.497 2.558H25.94V0h-2.56v2.558h-2.558v2.56h2.56v2.3l2.557-.51v-1.79h2.557v-2.56z" fill="#D92F2F" mask="url(#b)"/></g></svg>